<?xml version="1.0" encoding="utf-8"?>
<!-- Generator: Adobe Illustrator 26.3.1, SVG Export Plug-In . SVG Version: 6.00 Build 0)  -->
<svg version="1.1" id="Layer_1" xmlns="http://www.w3.org/2000/svg" xmlns:xlink="http://www.w3.org/1999/xlink" x="0px" y="0px"
	 viewBox="0 0 293 172" style="enable-background:new 0 0 293 172;" xml:space="preserve">
<g>
	<path d="M152.2,103.5c-0.4,0.4-0.8,1.2-1.2,1.3c-8.8,0.8-17.7,1.5-26.8,2.2c-0.1,1.3-0.3,3.1-0.5,4.8c-0.5,0.4-1,0.8-1.5,1.2
		c-1.9,0.7-3.8,1.3-5.6,2.2c-2.3,1.1-4.4,2.3-6.6,3.5c0.4,0.7,0.7,1.4,1.1,2.1c2-0.9,3.8-2.1,5.9-2.8c1.6-0.6,3.4-0.6,5.1-0.9
		l-0.2-0.1c0.3,2,0.7,4.1,1,6.1c-0.3,0.3-0.6,0.6-0.9,0.9c-3.1,1.6-6.4,3-9.3,4.8c-1.2,0.7-1.6,2.6-2.4,3.9l0,0
		c-3.3,0.3-7.4-0.5-9.6,1.2c-2.4,1.8-4,2-6.5,1.5c-18.1-3.7-36.2-7.3-54.3-10.8c-2.2-0.4-4.5-0.1-6.8-0.1c-0.1,0.6-0.2,1.3-0.2,1.9
		c22.3,5.5,44.5,11,66.2,16.4c0.7,2.9,1.3,5.4,1.6,6.6c-21-6.9-43.4-13.4-66.4-18.5c-1.1-0.2-2.3-0.5-3.3-0.8
		c-1.3-5.8-2.5-6.1-7-1.9c-4.5-2.4-1.9-4.5,0.6-6.8c-3.3-2.6-4.6-5.5-0.7-8.4c-3-4.1-3-4.1-0.5-6.4c1.9,1,3.4,4.3,6,1.3
		c0.6-0.7,0.5-2.9-0.1-3.4c-3-2.7-4.2,0.6-5.8,2.1c-0.3-1.3-0.5-2.7-0.8-3.9c-0.2-0.6-1.1-1.1-1-1.6c0.2-3.6,0.7-7.3,1-10.9
		c0.2-2.9,0.5-5.7,0.3-8.6c-0.2-3.8-0.8-7.6-1.2-11.4c-0.1-0.6,0.2-1.2,0.2-1c-4.4,0-8.8,0.1-13.2-0.1c-0.7,0-1.8-1-2-1.7
		c-0.1-0.7,0.6-2,1.2-2.3c5.1-2.5,6.3-9.2,12.2-11.1c0.9-0.3,1.6-4.2,4.4-5.2c2.6-0.9,5.1-2.4,8.4-4c-1.5-0.3-2.3-0.5-3.1-0.6
		c-0.2-0.3-0.3-0.6-0.5-1c1.5-0.7,3.2-1.3,4.6-2.2c1.2-0.8,4.6-0.2,2.6-3.5c-0.1-0.1,0.5-1,0.8-1.1c6.2-1.1,8.2-7.3,12.8-10.5
		c4.1-2.8,6.5-7.9,10.2-11.5c1.5-1.5,4.6-2.5,6.7-2.2c12.6,2.2,25.1,4.8,37.7,7.4c22.1,4.5,44.2,9.1,67,13.9
		c1.2-5.6,2.7-10.2,2.9-14.9c0.5-10,0.7-10.5,11-12c-3,1.4-6,2.7-9.4,4.2c0.2,6.6,1,13.5-2.7,19.8c-0.3,0.5,1,2.8,1.6,2.8
		c5.5,0.2,9.1,3.6,13,6.7c0.9,0.7,2.2,0.9,3.3,1.4c0.2-0.3,0.4-0.6,0.7-0.9c-1.3-1.8-2.7-3.5-3.8-5c0.4-0.1,1.6-0.6,3.4-1.2
		c-4.6-4.9-10.4,1.1-14.6-2.7c0.8-1,1.6-2,2.4-3c2.9,4.2,3,4.2,6.9-0.1c0.8,0.6,1.7,1.2,3.1,2.3c0-2.1,0-3.4,0-4.9
		c-4.1,0.2-7.8,0.4-11.6,0.5c0-0.6-0.1-1.3-0.1-1.9c1.1-0.1,2.2-0.3,3.3-0.3c1.8,0,3.7,0.5,5.4,0.1c0.9-0.2,1.4-1.7,2.1-2.7
		c-1.1-0.4-2.1-1.1-3.2-1.1c-1.9,0-3.9,0.4-6.7,0.8c3.4-3.3,9.1-1.4,8.5-7.8c-2,1.2-4,2.3-6.1,3.5c-0.7-0.9-1.4-1.8-2.1-2.8
		c2.9-0.8,5.4-1.4,7.8-2.1c-0.1-0.4-0.2-0.7-0.3-1.1c-1.8,0.2-3.6,0.5-5.4,0.7c0-0.2-0.1-0.4-0.1-0.6c2-0.8,4.1-1.7,6.2-2.6
		c-0.7-0.9-1.2-1.5-1.7-2.1C192,5.9,196,8.9,197.3,15c0.9,4,2.9,7.8,3.8,11.8c1.3,5.6,2.1,11.3,3,17c0.4,2.4,0.7,4.8,1,7.2
		c-6.3-3.4-13.1-6.2-18.7-10.5c-5.4-4.1-10.9-6.1-17.5-5.5c-0.6,0.1-1.2,0.6-1.7,0.5c-7.9-1.7-15.7-3.6-23.6-5.1
		c-14-2.6-28-4.9-42-7.5c-4.2-0.8-8.2-2.6-12.4-3.6c-1.6-0.4-3.5,0.4-4,0.5c-7-2-13.2-3.8-19.5-5.5c-0.3,0.5-0.5,1-0.8,1.5
		c3.5,3.2,6.9,6.8,10.7,9.7C89.7,36.3,104,47,118.3,57.6c1.2,0.9,3,1.4,4.6,1.5c5,0.3,10.1,0.1,15.2,0.4c3.9,0.3,7.7,1.3,11.5,1.5
		c7.7,0.4,15.4,0.6,23.1,0.8c1.6,0.1,3.1,0,4.7,0.2c5.3,0.6,10.5,1.3,15.7,1.8c3.4,0.3,6.8,0.1,10.2,0.3c7.5,0.5,15.1,1.2,22.6,1.6
		c7.4,0.5,14.9,0.9,22.3,1.1c6.1,0.2,12.2,0,18.3,0c-6.9-1.6-13.8-1.9-20.6-3.2c-11.4-2.3-22.8-5.1-34.1-8.1
		c-2.5-0.7-4.6-3.1-6.9-4.7c17.8,9,37.2,11.3,56.7,13c3.8,0.3,7.5,1.2,11.2,2.2c1,0.3,1.8,1.8,3.7,3.8c-5.7-0.3-9.7-0.4-14.3-0.6
		c0,14,0,27.6,0,41.3c0,1.6-0.6,3.2-0.9,4.8c-0.5-0.1-1.1-0.2-1.6-0.3c0-15.2,0-30.4,0-45.8c-13.7-0.8-26.9-1.5-40.1-2.3
		c0,0.4,0,0.7-0.1,1.1c2.6,0,5.2,0,7.8,0c3.2,0,4.7,1.3,3.2,5c-3.3,0-6.8,0-10.2,0c0,0.3,0,0.6,0,0.9c3.3,0,6.5,0,9.8,0
		c0,0.3,0,0.7,0,1c-5.2,0-10.4,0-15.9,0c0,7.8,0,15,0,22.8c5.5-0.4,10.9-0.7,16.6-1.1c0,5.1,0,9.7,0,14.9c-7.5,1.3-15.1,2.7-22.4,4
		c-2.4,4.3,2.1,10.6-4.9,14.7c0-3.6,0-5.9,0-8.2c0-17-0.1-34,0-51c0-1.3,1.1-2.6,1.7-3.9c0.6,1.3,1.7,2.6,1.7,4
		c0.2,8.8,0.2,17.7,0.5,26.5c0,1.3,1.4,2.5,3,3.2c-0.9-1.1-2.5-2.1-2.5-3.2c0-1.6,1.2-3.1,1.8-4.4c-0.3-0.3-1.6-1.3-1.7-2.5
		c-0.8-7-0.1-9.6,2.2-10.9c-0.7-1.3-1.9-2.5-2-3.8c-0.1-1.2,1-2.5,1.5-3.7c-0.5-0.8-1.3-2.2-2.6-4.4c3.6,0,5.9,0,8.2,0
		c0-0.3,0-0.7,0-1c-21-1.2-42.1-2.4-63.1-3.6c-0.1,0.3-0.1,0.6-0.2,0.8c1.6,0.3,3.3,0.7,5.3,1.1c0.1,1.5,0.2,3.1,0.3,5.3
		c-6.7,0-13.1,0-19.5,0c0,0.5,0,1,0,1.5c6.3,0,12.7,0,19,0c0,0.6,0,1.1,0,1.7c-8.1,0-16.1,0-24.4,0c0,10.7,0,20.5,0,31.1
		C139.8,104.4,146,104,152.2,103.5L152.2,103.5z M122.1,65.9c-0.6,8.4-2.1,9.1-9.7,6.4c-3-1.1-6.6-0.8-9.8-0.5
		c-1.1,0.1-2.6,2.1-2.8,3.4c-0.2,1,1.3,2.9,2.3,3.1c1.3,0.3,3.2-0.4,4.3-1.4c0.8-0.7,0.7-2.4,1-3.6c1.5,0.3,3.1,0.5,4.6,0.8
		c-0.7,1.3-1.3,2.3-2,3.6c5.4,0.8,8.3-2.4,11.5-5.3c0.7-0.7,1.9-1.2,2.9-1.3c2.1-0.2,4.3-0.1,6.4-0.1c0-0.2,0-0.4,0-0.7
		c-2.4-0.2-4.8-0.3-6.9-0.5c-0.8-1.5-1.4-2.8-2-4c0.5-0.9,0.8-2.5,1.4-2.6c2-0.2,4,0.2,6,0.2c6.5,0,13.1,0,18.7,0
		c-12.5-3-26.3,1.2-39.7-2.7c-1.6-0.5-3.8-0.3-5.4,0.3c-1.3,0.5-2.7,2.1-3,3.5c-0.3,1.1,0.6,3.1,1.6,3.7c1,0.6,3.3,0.6,4.1-0.1
		c1.2-1.1,1.5-3,2.3-4.8c0.8,0.2,2,0.4,3.3,0.7c-0.4,1.2-0.8,2.2-1.7,4.3c2.3-0.9,4.3-1,5-2C116.9,63.1,119.4,63.9,122.1,65.9z
		 M29.1,71.8c11.7-0.7,23.5-1.3,35.2-2.2c1-0.1,2-1.5,3-2.3c-0.3-0.5-0.6-0.9-0.9-1.4c-8.9,0.8-17.8,1.3-26.6,2.5
		C36.2,68.9,32.7,70.7,29.1,71.8c0.2-1.5,0.3-3,0.5-4.3c26.7-2.8,53.4-5.7,80.1-8.5c0-0.5,0-0.9-0.1-1.4
		c-28.9,0.6-57.4,6.1-86.2,7.3c-0.1,0-0.2,0.5-0.3,1c1.2,0.1,2.4,0.2,2.6,0.3c-0.6,1.7-1.2,3.4-1.8,5C25.7,71.4,27.4,71.6,29.1,71.8
		z M113.7,103.6c-1.4,1.7-2.8,3.4-4.2,5.1c6.3,3.3,8.2-4.5,13.3-5c2.6-0.3,4.8-3.9,6.8-5.6c-0.3,0-1.4,0-2.5,0
		c-1.2,0-2.3-0.1-3.5-0.2c-0.4,5.9-2.1,6.9-10,5.7c-3.4-3.8-7.7-3.1-12-2.4c-3.5,0.6-7,1.7-10.4,1.5c-18.3-1.1-36.5-2.5-54.8-3.9
		c-3.1-0.2-5.1,0.2-5.2,4c22.4,2,44.7,4,67.3,6c0-1.6,0-2.7,0-2.7c2.6,0.4,6.7,1.9,7.2,1.1C107.7,104.1,111.2,105.1,113.7,103.6z
		 M114.3,58.8c0.1-0.1,0.2-0.2,0.3-0.4c-3.8-2.2-7.8-4-11.2-6.6c-10.6-8.3-21-17-31.5-25.4c-1-0.8-2.8-0.5-4.6-0.8
		c2.9,2,4.9,3.5,7.5,5.3c-1.7,1.4-2.8,2.3-4,3.4c-0.4-2.1-0.6-3.6-1.1-6.5c-1,5.2,1,10.4-5.1,11.8c-0.2-2.1-0.4-4-0.8-7.2
		c-1.6,4.9,1.4,10.3-4.7,12.2c-0.2-2.3-0.3-4.3-0.4-6.4c-1.3,8.4-1.3,8.4-4.4,10.5c-0.2-1.8-0.4-3.6-0.6-5.3c-0.3,0-0.5,0.1-0.8,0.1
		c0,4.9,0,9.9,0,14.8c-0.2,0-0.3,0-0.5,0c-0.1-1.9-0.3-3.8-0.5-6.2c-2,1.2-3.6,2.2-5.5,3.3c-0.3-2.2-0.5-4-0.8-5.8
		c-0.8,3.7,1.1,8.5-5.2,9.4c-0.2-1.4-0.4-2.7-0.9-5.5c-0.4,3.7-0.6,5.9-0.8,8.5c6.4-0.7,12.6-1.3,19.3-2c0-3.8,0-7.2,0-10.6
		c0.4,0,0.7,0,1.1,0c0,3.4,0,6.8,0,10.2c0.6,0.1,1.2,0.2,1.7,0.3c5.3-3.6,0.6-10,3.3-15.3c0,5.2,0,9.6,0,14.4
		c9.1,0.6,4.3-6.7,6.5-9.9c0.2,3.2,0.3,6.3,0.5,9.2c4.2,0.8,5.6-0.7,5.4-4.4c-0.2-6.5-0.1-13-0.1-19.5c0.4,6.6,0.2,13.3,0.5,19.9
		c0.1,1.2,2.4,3.2,3.6,3.1c1.2-0.1,2.8-2,3.4-3.4c0.6-1.6,0.1-3.5,0.1-5.3c0.2,0,0.4,0,0.6,0c0.2,2.6,0.3,5.2,0.5,8.4
		c4.5-0.4,8.7-0.8,12.9-1.2c0.1-2.3,0.2-4,0.3-5.7c0.1,0,0.2,0,0.4,0c0.2,1.7,0.4,3.5,0.5,4.2C104.8,56.2,109.6,57.5,114.3,58.8z
		 M31.1,116.3c0,0.6,0,1.3,0.1,1.9c22.2,4.5,44.4,8.9,66.6,13.4c0.3-2,0.4-3.2,0.6-4.6c4.7,5.4,7.2,5,10.8-0.9
		c2-0.2,3.8-0.3,5.9-0.5c-3.4-6.3-8.9-5.3-12.5-3.2c-5,2.9-9.5,1.9-14.3,1.2c-16.9-2.7-33.8-5.5-50.7-8.1
		C35.5,115,33.2,115.9,31.1,116.3z M29.5,109.3c0.1,0.4,0.2,0.9,0.4,1.3c22.3,3.2,44.7,6.5,67,9.4c2.8,0.4,5.9-0.8,8.8-1.3
		c0.3,0,0.6-0.3,0.8-0.5c1.9-1.3,3.8-2.7,5.7-4.1c-3.2-4.4-7.2-4.9-12-1.6c-1.3,0.9-3.3,1.4-4.9,1.3c-4.8-0.3-9.6-1-14.4-1.5
		c-14.7-1.6-29.4-3.4-44.2-4.8C34.4,107.4,31.9,108.7,29.5,109.3z M30.8,93.4c0.3,0.6,0.5,1.2,0.8,1.8c22.3,1.5,44.6,3.1,66.9,4.6
		c0-1.5,0-2.5,0-3.9c0.7,0.6,1,1.2,1.4,1.3c2,0.3,4.1,0.4,6.1,0.6c0.1-1.7,0.2-3.4,0.3-5.1c-2,0-4-0.2-5.9,0
		c-2.2,0.2-4.4,1.3-6.5,1.2c-19.4-0.7-38.9-1.6-58.3-2.3C34,91.5,32.4,92.8,30.8,93.4z M89.9,62.2c-7.3,0.8-13.9,1.4-20.6,2.1
		c0,7.4-0.1,14.2,0.1,21c0.1,1.2,1.9,3.3,3,3.3c5.8,0.3,11.5,0.2,17.5,0.2C89.9,79.8,89.9,71.4,89.9,62.2z M30.8,86.1
		c0.2,0.3,0.5,0.6,0.7,0.9c18.9,1.6,37.8,3.3,56.7,4.9c0-0.7,0.1-1.4,0.1-2.1c-6.7,0-13.4,0-20,0c-0.5-2.3-0.8-3.9-1.2-5.7
		c-11,0-21.8-0.1-32.6,0.1C33.2,84.2,32.1,85.5,30.8,86.1z M67.2,75.4c-10.7,0-20.9-0.2-31.1,0.2c-1.9,0.1-3.6,2.2-5.5,3.4
		c0.2,0.3,0.5,0.5,0.7,0.8c11.9,0,23.7,0,36,0C67.3,77.7,67.2,76.2,67.2,75.4z M107,83.6c2,0.2,4.6,0.4,7.9,0.7
		c-2.3,1.9-3.8,3.2-5.8,5c2.7,0.1,4.4,0.2,6.2,0.3c-0.2-0.3-0.4-0.6-0.5-0.9c1.9-1.6,3.9-3.3,5-4.2c-8.3-3.8-17.4-4.4-26.2,0.7
		c-0.6,1.7-1.4,3.8-2.1,5.7c2-0.7,4.4-1.5,6.6-2.3c0.1-0.9,0.2-1.8,0.3-2c2,0.9,4.1,2.6,5.4,2.1C105.2,88.1,105.9,85.4,107,83.6z
		 M110.1,96.3c4,2.9,11.2,0.1,11.2-2.5C117.5,94.6,113.8,95.5,110.1,96.3z M23,99.6c2.1,1.1,3.4,2.4,4.4,2.2
		c1.2-0.3,2.1-1.9,3.2-2.9c-1-0.9-2.2-2.6-3.1-2.5C26.2,96.5,25,98.1,23,99.6z M96.9,79.7c0.4-0.5,0.8-0.9,1.3-1.4
		c-0.2-1.4-0.4-2.8-0.8-6c-2.3,1.9-3.6,3.1-5,4.2C93.8,77.6,95.4,78.6,96.9,79.7z M27.3,96c1.2-1.8,2.5-3,2.4-4
		c-0.1-0.9-2-2.4-2.8-2.3c-1.1,0.1-2.6,1.7-2.6,2.7C24.2,93.4,25.9,94.4,27.3,96z M92.7,68.8c1.7-0.2,3.4-0.4,5.1-0.6
		c0-1.6,0-2.9,0-4.1C91.9,63.9,91.9,63.9,92.7,68.8z M30.7,84.5c-1.8-1.2-2.8-2.3-3.6-2.3c-1,0.1-1.8,1.3-2.8,2
		c0.9,0.9,1.7,2.3,2.8,2.6C27.8,87.1,28.9,85.7,30.7,84.5z"/>
	<path d="M104.8,151.8c1.6-2.5,2.8-4.2,3.6-5.5c1.1,0.9,2.6,2,4.1,3.1c0.5-0.7,0.9-1.5,1.4-2.2c-4.8-2.3-9.6-4.5-14.4-6.8
		c6.3,0.7,7.1,0.2,8.7-4.6c2.3,1.2,4.5,3.1,7,3.6c13.5,2.7,27.1,5.1,40.7,7.5c1.5,0.3,3.1,0.2,4.6,0.3c0.1-0.6,0.2-1.2,0.3-1.8
		c-13-2.3-25.9-4.5-38.9-6.8c0.1-0.5,0.2-0.9,0.2-1.4c8.2,1.4,16.3,3.1,24.5,4.1c7.2,0.9,14.4,1.1,21.6,1.7c1.1,0.1,2.1,1,2.5,1.2
		c2.3-1.8,4.4-3.7,6.8-4.9c0.7-0.4,2.5,1.2,3.7,1.9c1.7-3.3,6.3-4.5,9.5-2.3c2.2-4,16.6-7.7,18.5-4.6c2.6-4.3,6.8-5.4,9.8-2.7
		c1.4-3.7,5.9-5,9-3.1c1.6-1.1,2.9-2.5,4.4-2.8c4.3-0.8,8.8-0.9,13-1.9c3.3-0.8,6.4-2.9,9.7-3.8c2.5-0.7,5.8-4.2,7.4-0.3
		c2-1.3,4.3-2.9,6.7-4.4c0.3,0.4,0.5,0.8,0.8,1.3c-1.2,0.7-2.4,1.3-3.8,2.1c2.9,0.6,5.5,1.1,8.1,1.6c0.1,0.4,0.3,0.8,0.4,1.1
		c-3.8,1.5-7.6,3-11.7,4.6c-0.6,1.2-1.4,2.7-2.6,5.2c-1.2-3.2-2-5.3-2.7-7.4c-1.4,6.8-7.8,5.3-11.4,7.8c-2.9,2.1-7.7,1.1-9,6.1
		c-0.2,0.7-4.2,0.6-6.4,0.6c-2.1,0-4.4-0.9-6.2-0.3c-5.1,1.8-10,4.3-15.1,6.5c-0.3-0.9-0.6-1.7-0.9-2.5c0.3,0.2,0.6,0.5,1,0.7
		c-1.6,2.5-2.8,5.3-4.8,7.4c-0.7,0.7-3.2-0.2-4.9-0.4c0.1-0.5,0.2-1,0.3-1.4c0.9,0.2,1.8,0.3,4.3,0.8c-1.3-3.6-2.3-6.2-3.3-8.9
		c-0.6,0-1.2,0-1.8,0c1.9,7.9-4.2,8.2-8.6,9.9c-5.7,2.2-11.3,4.5-17.1,6.6c-1.9,0.7-4,0.9-6.3,1.3c-0.3-2.4-0.5-4-0.7-5.6
		c-0.1,0-0.2,0-0.3,0c0,2.6,0,5.2,0,7.8c-0.1,5-1.8,6.1-6.6,4.5c6.8-6.8-4.2-9.1-4.1-14.2c-0.2,1.7-0.3,3.3-0.6,6.4
		c-7.3-1.4-14.6-1.9-21.3-4.4c-7.7-2.8-15.2-3-23-1.6C108.8,151.3,107,151.5,104.8,151.8z"/>
	<path d="M122,124c0.3-0.3,0.6-0.6,0.9-0.9c2.1-5,6.7-4.6,10.9-5.2c7.3-0.9,14.5-2,21.8-3c-0.1-0.5-0.1-0.9-0.2-1.4
		c-2.8,0.4-5.6,0.8-8.4,1.1c-8.4,0.8-16.8,1.6-25.2,2.4c0,0,0.2,0.1,0.2,0.1c0-1.4,0.1-2.8,0.1-4.1c0.5-0.4,1-0.8,1.5-1.2
		c1.4-2.9,3.7-3.6,6.8-3.8c8.8-0.5,17.5-1.5,26.6-2.3c0,8.6,0,16.8,0,25.1c0,1.8-0.1,3.7,0.4,5.4c0.3,1.1,1.7,2,3.5,3.8
		c0-12.5,0-23.5,0-34.4c0-12.2-0.1-24.3-0.3-36.5c-0.1-3.7,1.3-4.8,5.4-3.5c0,3.6,0,7.4,0,11.2c0,19.3,0.1,38.6,0,57.9
		c0,1.7-1.4,4.8-2.3,4.9c-2.4,0.1-5-0.9-7.3-1.8c-1.5-0.6-2.8-1.8-4-2.6c0.9-0.1,2.1-0.1,3.6-0.2c0-2.9,0-5.7,0-9.1
		c-10.3,1.8-20.2,3.6-30.2,5.4c-0.1-0.5-0.2-1-0.3-1.5c10.1-1.9,20.1-3.8,30.2-5.7c-0.1-0.4-0.2-0.9-0.3-1.3
		c-7.3,1.3-14.6,2.6-21.9,3.9c-2.6,0.5-5.2,1-7.9,1.3C122.6,128.4,121.2,127.1,122,124z"/>
	<path d="M170.3,71.5c-3.9-0.1-2.6-3.2-2.3-6.4c10.6,0.6,21,1.2,31.8,1.8c0,1.7,0,3.2,0,4.1c-7.1-0.4-14-0.6-20.9-1.2
		c-3.8-0.3-4.5,0.6-4.4,4.6c0.5,14.6,0.3,29.3,0.3,44c0,2.1,0.5,5.6-3.2,1.8c-0.5-0.6-2.2-0.1-3.6-0.1c-0.2-3.3-2.1-7.1,2.8-7.7
		c-0.8-0.5-2.9-1.1-2.9-1.8c-0.2-2.3,0.4-4.7,0.8-7.6c-0.3-1.2-0.9-3.3-1.5-5.9c2.3-0.5,3.9-0.8,5.4-1.1c0-0.2,0.1-0.4,0.1-0.7
		c-1.6-0.2-3.1-0.5-5-0.7c0-2,0-4,0-6.2c1.5-0.3,2.9-0.6,4.3-0.8c-5.3-0.3-5-3.6-4.1-7.5c1.3-0.2,2.7-0.5,4.8-0.8
		C165.5,77.7,166.1,75,170.3,71.5z"/>
	<path d="M152.2,103.5c1.1-0.3,2.2-0.5,3.3-0.8c-0.1-0.4-0.1-0.8-0.2-1.2c-2.7,0.2-5.4,0.3-8.6,0.5c-0.1-2.3-0.3-4.4-0.4-6.9
		c3.3-0.4,6.3-0.7,9.3-1.1c0-0.4,0-0.7,0-1.1c-2.9,0-5.8,0-9,0c0-2.7,0-4.8,0-7.1c2.8-0.2,5.3-0.4,7.9-0.6c0-0.3,0-0.7,0-1
		c-2.5-0.1-5-0.2-7.8-0.4c0-2.5,0-4.9,0-7.5c3.5,0,6.8,0,10.5,0c0,9.1,0,18.1,0,27.7C155.4,103.9,153.8,103.7,152.2,103.5
		C152.2,103.5,152.2,103.5,152.2,103.5z"/>
	<path d="M233.3,121.9c0.3-2.1,0.8-3.8,0.8-5.5c0.1-14.5,0.1-29,0.3-43.4c0-1.4,1-2.8,1.5-4.1c0.7,1.4,1.9,2.8,1.9,4.2
		c0.1,14.6-0.1,29.3,0.1,43.9C238,121.1,236.4,122.3,233.3,121.9z"/>
	<path d="M177,120.7c0-16.4,0-32.8,0-49.4c3.1-1.1,4.3-0.1,4.2,3.1c-0.1,14.2-0.1,28.3,0,42.5C181.2,119.5,180.8,121.6,177,120.7z"
		/>
	<path d="M189.6,118.4c0-6.1,0-12.2,0-18.3c0-8.6,0-17.3,0.2-25.9c0-1.1,1.2-2.1,1.9-3.2c0.7,1.1,2,2.1,2,3.2
		c0.1,13.6,0.1,27.2-0.1,40.8c0,1.3-1.4,2.7-2.2,4C190.8,118.8,190.2,118.6,189.6,118.4z"/>
	<path d="M181.7,119.8c0-1.6,0-3.2,0-4.8c0-13.3,0-26.6,0.1-39.9c0-1.3,1.1-2.6,1.8-4c0.6,1.3,1.7,2.6,1.7,4c0.1,13.5,0,27-0.2,40.4
		c0,1.6-0.8,3.2-1.2,4.8C183.2,120.1,182.5,119.9,181.7,119.8z"/>
	<path d="M144,86.1c0,2.3,0,4.2,0,6.6c-3,0-5.8,0-9.2,0c0-5.3,0-10.5,0-16.3c2.7,0,5.7,0,9.1,0c0,2.3,0,4.7,0,7.4
		c-2.6,0.2-5,0.3-7.4,0.5c0,0.3-0.1,0.7-0.1,1C138.7,85.6,141.1,85.8,144,86.1z"/>
	<path d="M186.1,118.7c0-15.8,0-31.7,0-47.5c0.5-0.1,0.9-0.3,1.4-0.4c0.6,1.2,1.6,2.4,1.6,3.7c0.2,13.7,0.3,27.3,0.3,41
		c0,1.3-1,2.7-1.6,4C187.2,119.2,186.6,118.9,186.1,118.7z"/>
	<path d="M230.7,95.1c-2.4,0.4-4.8,0.7-8.3,1.2c0.6-2.9,1-5,1.5-7.2c-0.4-1.2-1-3.3-1.8-5.9c2.7,0,4.4,0,6.7,0
		c0.1,2.4,0.3,4.8,0.4,7.2c0.2,0,0.4,0,0.6,0c0-4.5,0-9,0-13.5c0.3,0,0.6,0,0.9,0C230.7,82.8,230.7,88.6,230.7,95.1z"/>
	<path d="M143.9,102.5c-3.1,0-5.7,0-8.6,0c0-2.3,0-4.5,0-7.2c2.8-0.2,5.5-0.3,8.6-0.5C143.9,97.5,143.9,99.7,143.9,102.5z"/>
	<path d="M199.8,93.9c-1.6,0-2.9,0-4.3,0c0-4.5,0-8.9,0-13.4c2.6-0.9,4.9-1.4,4.9,2.6C200.3,86.5,200,90,199.8,93.9z"/>
	<path d="M222.4,95.9c-2.7,0.3-4.6,0.5-7.5,0.8c0.4-2.4,0.1-4.8,1.2-6.1c0.8-0.9,3.9-1.1,4.9-0.3C222,91.3,221.9,93.7,222.4,95.9z"
		/>
	<path d="M215.2,89.4c-0.3-3.5-1.2-6.5,3.4-6.5c4.6,0,3.2,3,3.2,6C219.7,89.1,217.7,89.2,215.2,89.4z"/>
	<path d="M215.1,82.6c0-2.8,0-4.3,0-6.7c2.3,0.4,4.4,0.5,6.3,1.3c0.5,0.2,0.7,3.3,0.3,3.5C219.8,81.6,217.7,81.9,215.1,82.6z"/>
	<path d="M200,108.7c0,3.4,0,5.5,0,8c-1.4,0.3-2.7,0.6-4.7,1c0-2.5-0.4-4.7,0.2-6.6C195.8,110.2,198,109.8,200,108.7z"/>
	<path d="M110.3,132.7c2.6-1,5.3-1,7.5-3.8c2-2.6,4.7-0.8,6.7,3.5C119.2,132.5,114.8,132.6,110.3,132.7
		C110.3,132.7,110.3,132.7,110.3,132.7z"/>
	<path d="M228.5,82c-1.9,0-3.5,0-5.4,0c0-1.9,0-3.6,0-5.3C228.9,75.9,229,76,228.5,82z"/>
	<path d="M256.6,71.6c0,9.9,0,19.9,0,29.8c-0.1,0-0.2,0-0.3,0c0-9.9,0-19.9,0-29.8C256.4,71.6,256.5,71.6,256.6,71.6z"/>
	<path d="M200,72.4c0,2.9,0,4.5,0,6.8c-1.6-0.3-3.5,0-4.3-0.9c-0.8-0.8-0.9-3.1-0.3-4.1C196.1,73.3,198,73.1,200,72.4z"/>
	<path d="M195.6,102.1c1.7,0,2.9,0,4.1,0c1,6.1,1,6.1-4.1,6.1C195.6,106.3,195.6,104.4,195.6,102.1z"/>
	<path d="M195.9,100.7c-1.2-5.4-1.2-5.5,3.5-5.6C201,100.4,200.7,100.9,195.9,100.7z"/>
	<path d="M87.3,79.1c-2,0-3.8,0-6,0c0-1.9,0-3.9,0-6.3c1.8-0.1,3.7-0.2,6-0.4C87.3,74.7,87.3,76.6,87.3,79.1z"/>
	<path d="M71.8,73c2.4,0,4.1,0,6.4,0c0.1,1.9,0.2,3.8,0.3,6.3c-2.2,0.2-4.1,0.3-6.4,0.4C72,77.5,71.9,75.6,71.8,73z"/>
	<path d="M81.3,64.9c2.1-0.1,3.9-0.2,6.1-0.3c0,2.2,0,4.1,0,6.3c-2.1,0.1-3.9,0.2-6.1,0.3C81.3,69.1,81.3,67.3,81.3,64.9z"/>
	<path d="M78.4,81.1c0,2,0,3.6,0,5.6c-2,0-3.9,0-6.2,0c-0.1-1.8-0.2-3.5-0.3-5.6C74.1,81.1,76,81.1,78.4,81.1z"/>
	<path d="M88.1,87c-2.5,0-4.5,0-6.8,0c0-1.9,0-3.8,0-6c2,0,4,0,6.3,0C87.9,82.9,88,84.7,88.1,87z"/>
	<path d="M78.1,65.1c0.1,2.2,0.2,3.8,0.3,5.9c-2.1,0.3-3.9,0.5-6.3,0.8c-0.1-2.1-0.2-3.8-0.3-5.7C73.9,65.8,75.7,65.5,78.1,65.1z"/>
</g>
</svg>
